<?xml version="1.0" encoding="utf-8"?>
<!-- Generator: Adobe Illustrator 25.2.3, SVG Export Plug-In . SVG Version: 6.00 Build 0)  -->
<svg version="1.1" id="Layer_1" xmlns="http://www.w3.org/2000/svg" xmlns:xlink="http://www.w3.org/1999/xlink" x="0px" y="0px"
	 viewBox="0 0 100.4 100.4" style="enable-background:new 0 0 100.4 100.4;" xml:space="preserve">
<style type="text/css">
	.st0{fill:#E5E7EB;}
</style>
<g>
	<path class="st0" d="M40.9,10.5v79.4c0,1.6-3.7,2.8-8,2.8l0,0c-4.6,0-8-1.3-8-2.8V10.5c0-1.6,3.7-2.8,8-2.8l0,0
		C37.5,7.7,40.9,9,40.9,10.5z"/>
	<path class="st0" d="M75.5,10.5v79.4c0,1.6-3.7,2.8-8,2.8l0,0c-4.6,0-8-1.3-8-2.8V10.5c0-1.6,3.7-2.8,8-2.8l0,0
		C71.8,7.7,75.5,9,75.5,10.5z"/>
</g>
</svg>
