<?xml version="1.0" encoding="utf-8"?>
<!-- Generator: Adobe Illustrator 25.2.3, SVG Export Plug-In . SVG Version: 6.00 Build 0)  -->
<svg version="1.1" id="Слой_1" xmlns="http://www.w3.org/2000/svg" xmlns:xlink="http://www.w3.org/1999/xlink" x="0px" y="0px"
	 viewBox="0 0 1273 1280" style="enable-background:new 0 0 1273 1280;" xml:space="preserve">
<style type="text/css">
	.st0{fill:#059669;}
</style>
<g transform="translate(0.000000,1280.000000) scale(0.100000,-0.100000)">
	<path class="st0" d="M7205,12765c-60-18-389-115-730-215s-847-248-1125-330c-1766-519-2964-870-3380-992c-190-56-349-105-355-110
		s2-19,20-37c42-40,4977-3976,5023-4005c20-13,51-27,69-31c54-11,13-24,1193,385c272,95,610,212,750,260c140,49,424,147,630,218
		c206,72,661,229,1010,350s858,297,1130,392c272,94,618,214,769,266c150,52,286,101,302,110c35,18,37,34,7,61
		c-67,60-4993,3653-5047,3680C7390,12809,7349,12809,7205,12765z M6999,12296c312-56,559-174,725-346c241-249,141-515-230-610
		c-406-104-979,35-1266,308c-301,286-133,601,353,661C6678,12322,6893,12314,6999,12296z M3780,11345c183-24,331-66,479-136
		c332-155,506-401,418-592c-49-108-170-192-343-238c-101-27-363-37-498-19c-204,27-426,102-587,196c-119,70-248,198-291,289
		c-28,59-33,81-33,140c1,147,101,254,298,320C3381,11357,3582,11372,3780,11345z M8565,11099c393-47,764-250,882-483
		c38-74,43-174,13-243c-98-230-532-332-981-233c-382,85-691,292-760,510c-52,165,44,317,251,398C8137,11113,8317,11128,8565,11099z
		 M5461,10064c289-50,539-165,699-324c114-113,145-174,145-285c0-96-18-138-85-206c-222-223-832-229-1265-12
		c-129,64-190,107-277,194c-101,99-143,183-142,279c1,127,70,219,215,288c148,69,288,94,495,86C5313,10082,5410,10073,5461,10064z
		 M10255,9859c189-28,417-106,569-196c110-65,246-200,283-279c38-83,43-181,13-253c-97-225-531-328-975-231
		c-610,134-958,547-681,808C9612,9848,9921,9907,10255,9859z M7025,8805c303-25,654-179,824-360c79-85,115-160,119-251
		c5-95-21-156-95-224c-320-292-1188-180-1548,201c-221,235-152,480,168,589C6645,8811,6792,8824,7025,8805z"/>
	<path class="st0" d="M1280,10788c-5-13-296-1457-646-3211C118,4994-1,4385,8,4366c5-13,775-682,1709-1487S3752,1125,4163,770
		c412-355,761-651,775-659c22-12,27-11,38,3c6,10,15,34,19,54c3,20,322,1482,707,3247c386,1766,703,3226,705,3245c3,25-2,45-19,70
		c-13,19-172,154-354,300c-1050,840-4716,3765-4729,3772C1294,10809,1287,10805,1280,10788z M1767,9625c115-35,262-150,364-284
		c97-130,193-346,234-532c26-115,31-364,10-474c-22-119-62-219-118-298c-52-73-93-107-175-145c-48-23-70-27-142-26
		c-101,1-157,19-255,79c-81,50-202,171-265,264c-90,133-167,319-205,491c-9,43-19,144-22,235c-6,197,13,311,76,442
		C1375,9597,1557,9688,1767,9625z M4951,7030c94-29,161-72,256-163c366-351,489-1049,249-1410c-79-118-179-178-311-185
		c-141-7-273,55-410,192c-243,244-381,637-354,1009C4410,6883,4656,7123,4951,7030z M2984,6262c390-193,645-849,520-1337
		c-41-160-142-298-262-357c-59-29-76-33-152-33c-55,0-104,6-137,18c-228,76-448,344-551,667c-52,165-67,258-66,430
		c1,133,5,169,27,251c53,203,152,332,296,390c36,15,66,19,142,16C2892,6305,2903,6302,2984,6262z M955,5559c215-67,432-330,541-654
		c153-457,57-927-218-1064c-302-151-703,169-855,684c-38,131-55,250-55,390c1,259,63,438,195,563C678,5586,792,5610,955,5559z
		 M4061,2914c88-26,177-82,267-168c337-324,472-944,288-1331c-174-366-568-350-856,36c-187,251-293,626-260,927
		c30,283,153,474,350,545C3882,2935,4009,2929,4061,2914z"/>
	<path class="st0" d="M12285,8499c-220-76-542-188-715-248s-589-205-925-321c-335-117-673-234-750-260s-414-143-750-260
		c-335-116-725-252-865-300c-977-338-1341-465-1380-485c-57-29-75-50-89-100C6779,6403,5408,107,5403,58c-4-43-3-58,7-58
		c7,0,279,99,604,221c686,257,1517,567,2776,1037c639,239,1680,627,2015,753c345,129,413,160,432,199c6,14,46,176,88,360
		s101,441,131,570c31,129,77,331,105,447c27,117,72,310,99,428c28,118,73,312,100,430c28,118,73,312,100,430c28,118,73,312,100,430
		c28,118,73,312,100,430c28,118,73,312,100,430c28,118,73,312,100,430c28,118,73,312,100,430c28,118,73,312,100,430
		c28,118,72,311,99,428c28,116,75,318,105,447c76,326,73,310,45,309C12696,8639,12505,8576,12285,8499z M11943,7565
		c73-36,138-107,169-183c20-50,23-74,22-197c0-126-3-148-28-225c-103-311-348-607-634-767c-91-51-239-100-325-108
		c-200-18-361,80-414,254c-25,79-22,241,5,343c97,360,415,724,755,864c106,43,164,54,282,51C11874,7594,11891,7591,11943,7565z
		 M9781,4938c289-134,275-583-31-990c-325-433-833-624-1070-402c-93,87-126,186-117,353c21,425,435,922,874,1051
		C9539,4980,9704,4974,9781,4938z M7414,2250c165-51,248-182,248-390c0-371-312-819-707-1018c-132-66-213-87-340-87
		c-104,0-114,2-177,33c-113,55-176,148-198,290c-46,292,178,724,502,970C6991,2237,7226,2308,7414,2250z"/>
</g>
</svg>
